<?xml version="1.0" encoding="iso-8859-1"?>
<!-- Generator: Adobe Illustrator 19.0.0, SVG Export Plug-In . SVG Version: 6.00 Build 0)  -->
<svg version="1.1" id="Capa_1" xmlns="http://www.w3.org/2000/svg" xmlns:xlink="http://www.w3.org/1999/xlink" x="0px" y="0px"
	 viewBox="0 0 449.412 449.412" style="enable-background:new 0 0 449.412 449.412;" xml:space="preserve">
<path fill="#04c950" id="XMLID_264_" d="M382.635,124.312l-20.171-15.946c-2.793-2.208-6.547-2.764-9.859-1.463l-26.769,10.518V75.109
	c0-3.058-1.399-5.948-3.798-7.845l-20.171-15.946c-2.793-2.208-6.548-2.764-9.859-1.463l-26.926,10.58v-34.49
	c0-3.059-1.399-5.948-3.799-7.845L241.112,2.155c-2.791-2.207-6.546-2.764-9.858-1.463l-40.583,15.945
	c-3.826,1.504-6.343,5.196-6.343,9.308v34.51l-26.978-10.6c-3.312-1.301-7.066-0.744-9.858,1.463L127.32,67.265
	c-2.398,1.896-3.798,4.786-3.798,7.845V117.4l-26.715-10.497c-3.313-1.301-7.067-0.745-9.858,1.463l-20.172,15.946
	c-2.398,1.896-3.798,4.787-3.798,7.845v181.76c0,0.099,0.012,0.194,0.015,0.292c0.178,32.55,11.751,63.063,33.406,87.28
	c27.235,30.456,68.408,47.923,112.962,47.923c36.694,0,72.453-11.214,103.41-32.43c30.115-20.64,53.253-49.688,65.148-81.792
	c8.101-21.858,8.512-35.594,8.512-56.195V132.157C386.433,129.1,385.033,126.209,382.635,124.312z M366.433,278.995
	c0,19.478-0.323,30.514-7.266,49.246c-22.072,59.568-83.674,101.171-149.805,101.171c-39.44,0-74.264-14.651-98.054-41.255
	c-21.465-24.003-31.252-55.38-27.56-88.352c5.971-53.296,57.724-96.655,115.367-96.655c28.858,0,54.313,10.692,71.675,30.107
	c15.618,17.466,22.738,40.309,20.049,64.321c-3.796,33.896-36.813,61.473-73.599,61.473c-18.277,0-34.365-6.733-45.299-18.959
	c-9.771-10.927-14.224-25.234-12.538-40.287c1.597-14.253,16.174-26.294,31.832-26.294c7.694,0,14.414,2.774,18.919,7.812
	c3.926,4.39,5.712,10.163,5.03,16.258c-0.613,5.488,3.339,10.436,8.827,11.05c5.491,0.616,10.436-3.338,11.05-8.827
	c1.322-11.827-2.229-23.125-10-31.813c-8.229-9.201-20.559-14.479-33.826-14.479c-12.458,0-24.656,4.494-34.346,12.655
	c-9.856,8.303-16.022,19.458-17.361,31.412c-2.328,20.786,3.889,40.619,17.505,55.846c14.564,16.286,36.51,25.627,60.207,25.627
	c22.563,0,44.669-8.153,62.247-22.959c17.746-14.946,28.836-34.937,31.227-56.287c3.332-29.745-5.552-58.114-25.015-79.879
	c-20.9-23.372-52.459-36.776-86.584-36.776c-32.666,0-64.681,11.813-90.148,33.265c-10.272,8.652-18.995,18.468-25.988,29.102
	V136.999l11.863-9.379l28.68,11.269v29.836c0,5.522,4.478,10,10,10s10-4.478,10-10V79.951l11.863-9.379l28.942,11.373v69.525
	c0,5.522,4.478,10,10,10s10-4.478,10-10V32.761l28.891-11.352l11.863,9.378v125.889c0,5.522,4.478,10,10,10s10-4.478,10-10V81.925
	l28.891-11.353l11.863,9.379v120.748c0,5.522,4.478,10,10,10s10-4.478,10-10V138.91l28.733-11.29l11.863,9.379V278.995z"/>
<g>
</g>
<g>
</g>
<g>
</g>
<g>
</g>
<g>
</g>
<g>
</g>
<g>
</g>
<g>
</g>
<g>
</g>
<g>
</g>
<g>
</g>
<g>
</g>
<g>
</g>
<g>
</g>
<g>
</g>
</svg>
