<svg version="1.1" id="Layer_1" xmlns="http://www.w3.org/2000/svg" xmlns:xlink="http://www.w3.org/1999/xlink" x="0px" y="0px" width="58px" height="58px" viewBox="0 0 600 600" enable-background="new 0 0 600 600" xml:space="preserve"><path id="color_x5F_2_5_" fill="#92c447" d="M188.286,416.603c16.848,6.675,30.748,20.453,37.57,37.242    c6.821,16.789,6.472,36.358-0.946,52.892c-17.734-5.449-32.73-19.183-39.714-36.37C178.213,453.178,179.379,432.877,188.286,416.603    z M173.269,546.19c17.703-5.551,32.62-19.37,39.506-36.598c-15.87-8.748-35.345-10.702-52.636-5.28    c-17.293,5.422-32.165,18.144-40.199,34.389C135.429,548.912,155.566,551.74,173.269,546.19z M117.17,505.488    c18.547,0.445,37.121-7.833,49.188-21.925c-12.208-13.394-30.016-21.516-48.132-21.95c-18.117-0.437-36.294,6.818-49.131,19.61    C80.471,495.88,98.623,505.042,117.17,505.488z M66.26,446.737c17.946,4.702,37.926,0.918,52.911-10.021    c-8.798-15.843-24.26-27.843-41.79-32.435c-17.53-4.593-36.889-1.713-52.325,7.782C32.754,428.944,48.312,442.037,66.26,446.737z     M24.902,363.56c13.735,12.472,33.198,18.361,51.543,15.599c-0.47-18.117-8.624-35.908-22.041-48.091    c-13.417-12.183-31.911-18.587-49.988-17.311C3.431,332.282,11.167,351.088,24.902,363.56z M8.92,268.345    c9.578,15.89,26.53,27.118,44.897,29.738c4.75-17.489,2.046-36.873-7.309-52.394c-9.354-15.521-25.232-26.965-42.915-30.933    C-2.668,232.221-0.656,252.456,8.92,268.345z M128.643,419.33c1.483,18.493,11.647,36.105,26.917,46.643    c12.052-13.532,18.279-32.088,16.83-50.152c-1.449-18.064-10.554-35.389-24.61-46.827    C134.385,381.83,127.159,400.837,128.643,419.33z M84.515,360.538c-1.275,18.509,6.164,37.434,19.701,50.119    c13.927-11.596,22.837-29.021,24.082-47.102c1.247-18.079-5.188-36.562-17.393-49.96C95.755,324.305,85.79,342.029,84.515,360.538z     M69.583,273.719c-7.811,16.828-7.631,37.162,0.476,53.85c17.152-5.849,31.705-18.936,39.334-35.374    c7.629-16.438,8.229-36.001,1.623-52.876C93.038,243.9,77.393,256.89,69.583,273.719z M55.88,190.29    c-6.849,17.242-5.524,37.533,3.509,53.738c16.795-6.805,30.587-20.692,37.279-37.534c6.69-16.842,6.188-36.407-1.358-52.883    C77.619,159.198,62.73,173.049,55.88,190.29z M411.714,416.603c-16.849,6.675-30.748,20.453-37.57,37.242    c-6.821,16.789-6.472,36.358,0.946,52.892c17.734-5.449,32.729-19.183,39.714-36.37    C421.787,453.178,420.621,432.877,411.714,416.603z M480.06,538.701c-8.034-16.244-22.906-28.967-40.198-34.389    s-36.766-3.468-52.637,5.28c6.887,17.228,21.803,31.047,39.506,36.598C444.434,551.74,464.57,548.912,480.06,538.701z     M530.905,481.224c-12.838-12.792-31.015-20.047-49.132-19.61c-18.116,0.435-35.924,8.557-48.132,21.95    c12.067,14.092,30.641,22.37,49.188,21.925C501.376,505.042,519.529,495.88,530.905,481.224z M574.944,412.065    c-15.435-9.495-34.794-12.375-52.325-7.782c-17.53,4.592-32.992,16.592-41.79,32.435c14.985,10.939,34.964,14.723,52.911,10.021    C551.688,442.037,567.246,428.944,574.944,412.065z M595.584,313.757c-18.077-1.276-36.572,5.128-49.988,17.311    c-13.416,12.183-21.571,29.974-22.041,48.091c18.346,2.763,37.809-3.127,51.543-15.599    C588.834,351.088,596.569,332.282,595.584,313.757z M596.406,214.757c-17.683,3.968-33.561,15.412-42.915,30.933    c-9.354,15.52-12.059,34.904-7.309,52.394c18.367-2.62,35.319-13.849,44.897-29.738    C600.656,252.456,602.668,232.221,596.406,214.757z M452.221,368.993c-14.057,11.438-23.161,28.764-24.61,46.827    c-1.449,18.064,4.778,36.62,16.83,50.152c15.27-10.537,25.434-28.149,26.917-46.643C472.841,400.837,465.615,381.83,452.221,368.993    z M489.094,313.596c-12.204,13.397-18.639,31.881-17.393,49.96c1.246,18.08,10.156,35.506,24.083,47.102    c13.537-12.685,20.976-31.61,19.701-50.119C514.21,342.029,504.244,324.305,489.094,313.596z M488.984,239.318    c-6.607,16.875-6.006,36.438,1.623,52.876c7.629,16.439,22.182,29.525,39.334,35.374c8.107-16.688,8.285-37.021,0.476-53.85    C522.607,256.89,506.961,243.9,488.984,239.318z M504.69,153.611c-7.546,16.476-8.049,36.041-1.358,52.883    c6.691,16.842,20.483,30.729,37.279,37.534c9.033-16.205,10.357-36.496,3.508-53.738    C537.269,173.049,522.381,159.198,504.69,153.611z"></path><path id="color_x5F_1_43_" fill="#d68d0f" d="M161.96,167.665h-0.002v19.859h-18.751c-11.347,0-20.545-9.198-20.545-20.545V56.067    c0-11.347,9.198-20.545,20.545-20.545h18.751v19.859h0.002V167.665z M322.276,333.027h-44.553    c-1.117,29.242-4.669,114.906-8.79,138.252c-4.993,28.292-6.103,93.198,31.065,93.198c37.168,0,36.06-64.906,31.066-93.198    C326.945,447.934,323.393,362.27,322.276,333.027z M407.434,167.665h21.927V55.381h-21.927V167.665z M170.648,167.665h21.926V55.381    h-21.926V167.665z M456.793,35.522h-18.752v12.5h0.009v128.075h-0.009v11.427h18.752c11.347,0,20.545-9.198,20.545-20.545V56.067    C477.338,44.721,468.14,35.522,456.793,35.522z M398.746,167.665V55.381v-7.358c0-6.904-5.598-12.5-12.502-12.5h-172.49    c-6.904,0-12.5,5.597-12.5,12.5h0.01v127.525c0.107,6.632,5.507,11.977,12.164,11.977h12.234V35.522h13.314v152.002h21.914    l7.41,39.942h9.787h43.825h9.244h0.543l7.41-39.942h21.912V35.522h13.314v152.002h12.235c6.724,0,12.175-5.45,12.175-12.174V167.665    z M321.912,237.675h-43.825v46.034h43.825V237.675z M331.065,308.599c0-14.146-9.153-14.562-9.153-14.562v-0.119h-43.825v0.119    c0,0-9.215,0.417-9.153,14.562c0.043,9.903,5.811,13.261,8.164,14.22h46.406C326.123,321.972,331.065,319.003,331.065,308.599z"></path></svg>
