<svg version="1.1" id="Layer_1" xmlns="http://www.w3.org/2000/svg" xmlns:xlink="http://www.w3.org/1999/xlink" x="0px" y="0px" width="58px" height="58px" viewBox="0 0 600 600" enable-background="new 0 0 600 600" xml:space="preserve"><path id="color_x5F_2_1_" fill="#FAA61A" d="M300,0c0,0-215.393,36.181-284.068,120.603c0,0,9.365,226.131,56.19,316.583    C118.945,527.639,231.324,572.864,300,600c68.676-27.136,181.055-72.361,227.88-162.815    c46.823-90.452,56.189-316.583,56.189-316.583C515.393,36.181,300,0,300,0z"></path><path id="color_x5F_1_36_" fill="#FFFFFF" d="M114.794,205.071c0-16.965,13.752-30.718,30.717-30.718    c13.834,0,25.395,9.207,29.241,21.78c39.029-28.615,72.957-53.974,125.259-53.974c52.301,0,86.229,25.358,125.258,53.974    c3.847-12.574,15.406-21.78,29.241-21.78c16.964,0,30.717,13.753,30.717,30.718c0,13.086-8.605,25.023-21.024,29.157    c-14.29,4.757-28.098-5.089-39.32-12.762c-9.883-6.757-20.168-12.938-30.767-18.503c-28.896-15.169-61.146-26.465-94.105-26.465    c-32.735,0-64.77,11.147-93.501,26.155c-10.621,5.547-20.928,11.717-30.83,18.464c-11.579,7.889-23.393,17.707-38.363,13.567    C124.157,231.044,114.794,218.719,114.794,205.071z M300.011,120.442c13.516,0,24.473-10.958,24.473-24.474    s-10.957-24.474-24.473-24.474c-13.517,0-24.475,10.957-24.475,24.474S286.494,120.442,300.011,120.442z M202.842,385.257h8.498    c0,0,0.047,41.527-65.827,41.527c-65.874,0-65.874-41.527-65.874-41.527h8.539l-0.481-0.179l50.489-135.273    c1.14-3.058,4.06-5.086,7.325-5.086c3.264,0,6.185,2.027,7.324,5.086l50.486,135.273L202.842,385.257z M186.7,385.257    l-41.188-110.357l-41.19,110.357H186.7z M292.28,207.185l-38.835,235.493l46.566,52.734l46.565-52.734L307.74,207.185    C306.298,198.439,293.723,198.439,292.28,207.185z M520.359,385.257c0,0,0.049,41.527-65.824,41.527    c-65.875,0-65.875-41.527-65.875-41.527h8.519l-0.48-0.179l50.487-135.273c1.139-3.058,4.061-5.086,7.324-5.086    c3.265,0,6.186,2.027,7.324,5.086l50.488,135.273l-0.481,0.179H520.359z M495.7,385.257l-41.19-110.357l-41.189,110.357H495.7z"></path></svg>
